Coordinates
version=1
nRows=10
nColumns=63
inDegrees=yes

Units are S.I. units (second, meters, Newtons, ...)
If the header above contains a line with 'inDegrees', this indicates whether rotational values are in degrees (yes) or radians (no).

endheader
time	pelvis_tilt	pelvis_list	pelvis_rotation	pelvis_tx	pelvis_ty	pelvis_tz	hip_flexion_r	hip_adduction_r	hip_rotation_r	knee_angle_r	knee_angle_r_beta	ankle_angle_r	subtalar_angle_r	mtp_angle_r	hip_flexion_l	hip_adduction_l	hip_rotation_l	knee_angle_l	knee_angle_l_beta	ankle_angle_l	subtalar_angle_l	mtp_angle_l	L5_S1_Flex_Ext	L5_S1_Lat_Bending	L5_S1_axial_rotation	L4_L5_Flex_Ext	L4_L5_Lat_Bending	L4_L5_axial_rotation	L3_L4_Flex_Ext	L3_L4_Lat_Bending	L3_L4_axial_rotation	L2_L3_Flex_Ext	L2_L3_Lat_Bending	L2_L3_axial_rotation	L1_L2_Flex_Ext	L1_L2_Lat_Bending	L1_L2_axial_rotation	L1_T12_Flex_Ext	L1_T12_Lat_Bending	L1_T12_axial_rotation	Abs_r3	Abs_r2	Abs_r1	Abs_t1	Abs_t2	neck_flexion	neck_bending	neck_rotation	arm_flex_r	arm_add_r	arm_rot_r	elbow_flex_r	pro_sup_r	wrist_flex_r	wrist_dev_r	arm_flex_l	arm_add_l	arm_rot_l	elbow_flex_l	pro_sup_l	wrist_flex_l	wrist_dev_l
      0.00000000	      1.38213068	     -8.34564067	     93.79480893	     -0.00749490	      1.06545555	      0.33877846	     -6.24092045	      1.62594933	     -0.78874205	      0.24970505	      0.00435818	     12.28820877	      1.84304539	      0.00000000	     -5.22131051	     -5.16818251	     15.80431254	      0.39162745	      0.00683519	     11.65625827	      0.46859884	      0.00000000	     -0.16742766	      0.38484734	     -0.45333625	     -0.31092991	      0.51184697	     -0.48166976	     -0.27506691	      0.93571783	     -0.48166976	     -0.19135308	      0.93571783	     -0.39666922	     -0.15547333	      0.78478070	     -0.36833570	     -0.09566817	      0.59612853	     -0.34000219	     -1.19591905	      4.35347011	     -2.52132021	      0.00000000	      0.00000000	     19.64832334	      0.00059972	      3.53962678	     15.27603406	     -8.51705647	     72.00570094	     47.01083036	     88.73386220	     10.66438267	     22.23977903	     12.40824328	     -5.89358838	     56.93332249	     49.80171899	     69.79972633	      6.39766601	     30.05939716
      0.02000000	      1.31258676	     -8.59587234	     93.50573111	     -0.00789484	      1.06628558	      0.33969951	     -5.94228236	      1.40854832	     -0.05013052	      0.23760701	      0.00414702	     12.99073058	      2.41343596	      0.00000000	     -4.95297071	     -4.96993464	     16.51557750	      0.40248538	      0.00702470	     11.83508908	     -1.06140957	      0.00000000	     -0.14785603	      0.37673746	     -0.22169691	     -0.27458343	      0.50106082	     -0.23555297	     -0.24291267	      0.91599945	     -0.23555297	     -0.16898465	      0.91599945	     -0.19398480	     -0.13729911	      0.76824302	     -0.18012874	     -0.08448493	      0.58356632	     -0.16627268	     -1.05612082	      4.26172946	     -1.23301171	      0.00000000	      0.00000000	     19.75725765	     -0.29420976	      2.25750563	     13.83850257	     -8.58268886	     70.43489498	     46.03194646	     88.85068412	      6.70091009	     19.37066930	     14.16715540	     -5.34491919	     61.48920523	     47.06743490	     63.90454975	      6.47783233	     27.77351237
      0.04000000	      1.18367102	     -8.74577764	     93.40249902	     -0.00832808	      1.06691735	      0.34054197	     -5.77936265	      1.18777100	      0.11127394	      0.22768380	      0.00397383	     13.42089099	      3.03890940	      0.00000000	     -4.73734750	     -4.75837712	     15.43586722	      0.41392410	      0.00722434	     12.29001930	      0.14380900	      0.00000000	     -0.14657383	      0.36243382	     -0.10900832	     -0.27220227	      0.48203698	     -0.11582134	     -0.24080615	      0.88122159	     -0.11582134	     -0.16751923	      0.88122159	     -0.09538228	     -0.13610846	      0.73907504	     -0.08856926	     -0.08375229	      0.56140998	     -0.08175624	     -1.04696223	      4.09992384	     -0.60627157	      0.00000000	      0.00000000	     19.96609540	     -0.27202302	      1.79100540	     12.98816735	     -8.54239661	     69.49301811	     45.20714296	     88.86318526	      3.84628849	     16.86509433	     15.12622707	     -4.89098779	     63.96223826	     45.32674339	     61.75963666	      6.78197387	     25.85373102
      0.06000000	      1.01679798	     -8.94381803	     93.28245458	     -0.00861868	      1.06716182	      0.34112751	     -5.59541430	      0.94186717	      0.63094831	      0.22413162	      0.00391183	     13.65420624	      2.96058273	      0.00000000	     -4.47939082	     -4.52314428	     15.01443309	      0.42175677	      0.00736104	     12.53450352	      0.57331372	      0.00000000	     -0.13229545	      0.33945682	     -0.00061146	     -0.24568588	      0.45147757	     -0.00064968	     -0.21734819	      0.82535531	     -0.00064968	     -0.15120047	      0.82535531	     -0.00053503	     -0.12284955	      0.69222034	     -0.00049682	     -0.07559362	      0.52581861	     -0.00045860	     -0.94497317	      3.84000342	     -0.00340078	      0.00000000	      0.00000000	     20.12287352	     -0.37465388	      0.88446745	     11.84933294	     -8.56438650	     67.55271968	     44.82938999	     88.85832937	      1.24757350	     14.74585636	     15.84880595	     -4.50419778	     65.92722843	     44.15736686	     59.79456371	      6.79666572	     24.57442465
      0.08000000	      0.82129565	     -9.11164923	     93.21632204	     -0.00893015	      1.06727910	      0.34165801	     -5.45606144	      0.68674362	      1.36005007	      0.22097928	      0.00385682	     13.64379233	      2.32611227	      0.00000000	     -4.23401726	     -4.26483997	     14.24098500	      0.43570904	      0.00760456	     12.79560520	      1.43355032	      0.00000000	     -0.11854102	      0.31333694	      0.07793827	     -0.22014253	      0.41673813	      0.08280941	     -0.19475105	      0.76184744	      0.08280941	     -0.13548053	      0.76184744	      0.06819598	     -0.11007719	      0.63895669	      0.06332484	     -0.06773434	      0.48535893	      0.05845370	     -0.84672667	      3.54453017	      0.43346927	      0.00000000	      0.00000000	     20.18544224	     -0.53202079	      0.11169904	     11.04559956	     -8.58520470	     65.89481019	     44.61398529	     88.83053772	     -0.11581194	     13.15427755	     16.64841781	     -4.30341755	     68.33867857	     43.53635257	     57.50927279	      5.83524972	     23.16790089
      0.10000000	      0.67907738	     -9.31310346	     93.20934137	     -0.00923846	      1.06728681	      0.34227591	     -5.26465966	      0.48879945	      1.45384367	      0.21818929	      0.00380812	     13.55248540	      2.53028822	      0.00000000	     -3.94645310	     -4.07417375	     13.80435551	      0.42898689	      0.00748723	     12.82230062	      1.88562446	      0.00000000	     -0.10104105	      0.29698470	      0.05193079	     -0.18764333	      0.39498965	      0.05517647	     -0.16600033	      0.72208860	      0.05517647	     -0.11547981	      0.72208860	      0.04543944	     -0.09382671	      0.60561120	      0.04219377	     -0.05773485	      0.46002930	      0.03894810	     -0.72172608	      3.35955030	      0.28882349	      0.00000000	      0.00000000	     20.20951276	     -0.47211301	      0.16802922	     11.04449418	     -8.57184776	     65.70813400	     44.47154354	     88.74515725	     -0.31153611	     12.69255683	     16.76459807	     -4.23712784	     68.61546717	     43.32957409	     57.07950831	      5.44167930	     22.13665066
      0.12000000	      0.50683902	     -9.40126255	     93.22208239	     -0.00954231	      1.06734949	      0.34270432	     -5.20108513	      0.28367623	      1.51321384	      0.22040528	      0.00384680	     13.53883718	      2.46407714	      0.00000000	     -3.79273704	     -3.86799243	     13.40726216	      0.43123595	      0.00752649	     13.01127385	      2.44815683	      0.00000000	     -0.10242783	      0.27628213	      0.05222219	     -0.19021873	      0.36745524	      0.05548607	     -0.16827868	      0.67175238	      0.05548607	     -0.11706477	      0.67175238	      0.04569441	     -0.09511448	      0.56339453	      0.04243053	     -0.05852726	      0.42796103	      0.03916664	     -0.73163176	      3.12535875	      0.29044414	      0.00000000	      0.00000000	     20.34847698	     -0.32989316	      0.19494556	     11.02515779	     -8.55333997	     65.47062938	     44.37462981	     88.73144893	     -0.60028609	     12.28544268	     16.90743061	     -4.18960611	     68.90669400	     43.26692069	     56.71666601	      4.97996945	     21.28446803
      0.14000000	      0.24848796	     -9.34618772	     93.52771434	     -0.01000999	      1.06743837	      0.34312601	     -5.31057802	      0.05785094	      2.02361004	      0.21769813	      0.00379955	     13.50647591	      1.10565657	      0.00000000	     -3.74827853	     -3.61891769	     12.44156488	      0.43721661	      0.00763087	     13.45782072	      4.20451183	      0.00000000	     -0.13192050	      0.23965714	      0.01830682	     -0.24498957	      0.31874399	      0.01945100	     -0.21673220	      0.58270237	      0.01945100	     -0.15077194	      0.58270237	      0.01601847	     -0.12250138	      0.48870884	      0.01487429	     -0.07537938	      0.37122891	      0.01373012	     -0.94229496	      2.71104949	      0.10181705	      0.00000000	      0.00000000	     20.53791086	      0.05005821	     -0.03440703	     10.88623707	     -8.48525188	     64.91449729	     44.64998277	     88.73569790	     -1.45312211	     12.99002536	     17.10238970	     -4.32938177	     68.89493046	     43.87590233	     56.12008428	      3.63668650	     22.40423938
      0.16000000	      0.16589633	     -9.38639146	     93.43728056	     -0.01018330	      1.06749382	      0.34341928	     -5.24933232	     -0.04999857	      2.62206030	      0.21695598	      0.00378660	     13.60235718	      0.58685852	      0.00000000	     -3.68452201	     -3.51370341	     11.58144328	      0.44250776	      0.00772322	     13.74638564	      5.28363937	      0.00000000	     -0.14260226	      0.23146166	     -0.00241090	     -0.26482665	      0.30784400	     -0.00256158	     -0.23428125	      0.56277587	     -0.00256158	     -0.16298012	      0.56277587	     -0.00210954	     -0.13242046	      0.47199661	     -0.00195886	     -0.08148293	      0.35853411	     -0.00180818	     -1.01859367	      2.61834055	     -0.01340871	      0.00000000	      0.00000000	     20.67873726	      0.15888853	      0.21928895	     11.28133749	     -8.42173087	     65.55757472	     44.69094148	     88.76536273	     -1.18912236	     13.86523549	     16.94511837	     -4.35921787	     68.07604944	     44.01336758	     54.94408818	      3.33348964	     22.63344854
      0.18000000	      0.12966036	     -9.46709114	     93.53655975	     -0.01074867	      1.06742462	      0.34357596	     -5.14243040	     -0.10350720	      2.70750600	      0.21709972	      0.00378910	     13.96207125	      0.55758854	      0.00000000	     -3.59004792	     -3.46831824	     11.17317140	      0.45269320	      0.00790099	     13.78892490	      5.88711502	      0.00000000	     -0.14510853	      0.23158465	     -0.05519458	     -0.26948104	      0.30800758	     -0.05864424	     -0.23839880	      0.56307491	     -0.05864424	     -0.16584453	      0.56307491	     -0.04829526	     -0.13474778	      0.47224741	     -0.04484560	     -0.08291501	      0.35872462	     -0.04139594	     -1.03649569	      2.61973182	     -0.30697571	      0.00000000	      0.00000000	     20.86458527	      0.32435220	      0.59140030	     11.49140383	     -8.33992217	     65.88325672	     44.63002859	     88.74314128	     -1.17339775	     14.43980899	     16.77146435	     -4.37732641	     67.29028665	     44.25039134	     54.07081302	      3.02168548	     22.94344356
